<?xml version="1.0" encoding="UTF-8"?>
<svg xmlns="http://www.w3.org/2000/svg" viewBox="0 0 129.87 144.88">
  <defs>
    <style>
      .cls-1 {
        fill: none;
      }

      .cls-2 {
        fill: #f1f2f2;
      }

      .cls-3 {
        fill: #e6e7e8;
      }
    </style>
  </defs>
  <g id="Background">
    <rect class="cls-1" x=".87" y="3.88" width="128" height="128"/>
  </g>
  <g id="APP">
    <g id="Layer_150" data-name="Layer 150">
      <rect class="cls-3" x="4.37" y="16.88" width="8" height="115"/>
      <path class="cls-2" d="M61.2,31.98c-6.28-5.2-14.21-8.74-21.82-10.15-8.03-1.49-16.46-1.48-24.59-1.42v60.68c11.93-.21,23.87-.5,35.59,1.89,6.8,1.39,13.42,3.73,19.58,6.92v-47.51c-2.15-3.95-5.18-7.45-8.75-10.41Z"/>
      <path class="cls-3" d="M118.24,83.71c-4.99.82-10.61.67-15.63.1-6.45-.72-11.58-3.08-16.82-6.8,1.18.84,6-.24,7.42-.45,2.39-.36,4.75-.96,6.96-1.96,4.24-1.91,8.02-6.11,10.67-9.9,1.46-2.1,3.32-5.64,2.5-8.21-2.77,2.69-5.41,4.59-9.36,5.25-3.69.61-7.47.18-11.19-.3-5.52-.71-11.82-2.74-15.12-7.45-1.99-2.85-3.52-5.97-4.8-9.19,0,0-.01,46.75,0,46.77,2.44,3.24,7.63,5.45,11.39,6.54,6.01,1.74,13.26,2.14,19.45,1.47,6.12-.67,12.23-2.73,16.74-7.07,4.08-3.93,6.85-9.11,8.42-14.52-1,3.44-7.68,5.25-10.63,5.73Z"/>
      <rect class="cls-3" x=".87" y="3.88" width="15" height="11" rx="5.5" ry="5.5"/>
    </g>
  </g>
</svg>